<?xml version="1.0" encoding="utf-8"?><svg xmlns="http://www.w3.org/2000/svg" xmlns:xlink="http://www.w3.org/1999/xlink"><symbol viewBox="0 0 26.94 26.94" id="fb" xmlns="http://www.w3.org/2000/svg"><defs><style>.acls-1{fill:#3d94d1}</style></defs><title>фб_1</title><g id="aСлой_2" data-name="Слой 2"><path class="acls-1" d="M13.47 0a13.47 13.47 0 1 0 13.47 13.47A13.47 13.47 0 0 0 13.47 0zm3.87 8.89h-1.6c-.64 0-1.12.27-1.14 1.07v1.94h2.69l-.36 2.74h-2.34v6.85h-2.84v-6.85H9.42v-2.73h2.34V10.05a7.05 7.05 0 0 1 .09-1 3.05 3.05 0 0 1 1.23-2 3.54 3.54 0 0 1 2-.63h1.45c.26 0 .52 0 .78.07z" id="aСлой_1-2" data-name="Слой 1"/></g></symbol><symbol viewBox="0 0 26.94 26.94" id="telegram" xmlns="http://www.w3.org/2000/svg"><defs><style>.bcls-1{fill:#3d94d1}</style></defs><title>телеграм 2</title><g id="bСлой_2" data-name="Слой 2"><g id="bСлой_1-2" data-name="Слой 1"><path class="bcls-1" d="M17.84 9.49l-9 5.6a.41.41 0 0 0-.18.47l1.21 3.9a.08.08 0 0 0 .15 0l.29-2.62a.41.41 0 0 1 .14-.26l7.64-6.76a.2.2 0 0 0-.25-.33z"/><path class="bcls-1" d="M13.47 0a13.47 13.47 0 1 0 13.47 13.47A13.47 13.47 0 0 0 13.47 0zm7.8 7.79l-2.81 13.44a.89.89 0 0 1-1.39.53l-4.24-3.11-2.16 2.21a.72.72 0 0 1-1.2-.29l-1.56-5-4.18-1.19a.6.6 0 0 1 0-1.13l16.41-6.42a.85.85 0 0 1 1.13.96z"/></g></g></symbol><symbol viewBox="0 0 26.94 26.94" id="twitter" xmlns="http://www.w3.org/2000/svg"><defs><style>.ccls-1{fill:#3d94d1}</style></defs><title>твиттер_1</title><g id="cСлой_2" data-name="Слой 2"><path class="ccls-1" d="M13.47 0a13.47 13.47 0 1 0 13.47 13.47A13.47 13.47 0 0 0 13.47 0zm7.48 9.69a6.32 6.32 0 0 1-1.17 1.11.11.11 0 0 0-.05.1 8.91 8.91 0 0 1-.06 1.43 9.49 9.49 0 0 1-.83 2.87 9.3 9.3 0 0 1-1.74 2.54 8.62 8.62 0 0 1-4.43 2.47 9.58 9.58 0 0 1-1.8.21A9.1 9.1 0 0 1 5.7 19h-.08a6.51 6.51 0 0 0 3.23-.45 6.34 6.34 0 0 0 1.53-.89 3.23 3.23 0 0 1-3-2.24 3.21 3.21 0 0 0 1.38 0 3.22 3.22 0 0 1-2.09-1.48 3.13 3.13 0 0 1-.47-1.72 3.18 3.18 0 0 0 1.44.39 3.24 3.24 0 0 1-1.33-2 3.2 3.2 0 0 1 .35-2.34 9.23 9.23 0 0 0 6.65 3.37c0-.13 0-.24-.05-.35a3.14 3.14 0 0 1 .47-2.11A3.1 3.1 0 0 1 16 7.71a3.14 3.14 0 0 1 2.82.9.16.16 0 0 0 .17.05 6.52 6.52 0 0 0 1.88-.72 3.3 3.3 0 0 1-1.38 1.76 6.18 6.18 0 0 0 1.8-.48c-.1.14-.22.31-.34.47z" id="cСлой_1-2" data-name="Слой 1"/></g></symbol><symbol viewBox="0 0 26.94 26.94" id="vk" xmlns="http://www.w3.org/2000/svg"><defs><style>.dcls-1{fill:#3d94d1}</style></defs><title>вк_1</title><g id="dСлой_2" data-name="Слой 2"><path class="dcls-1" d="M13.47 0a13.47 13.47 0 1 0 13.47 13.47A13.47 13.47 0 0 0 13.47 0zm5.38 15.2c.47.48 1 .94 1.43 1.44a8.47 8.47 0 0 1 .9 1.17.66.66 0 0 1-.49 1.1c-.39.05-2.29 0-2.39 0a1.86 1.86 0 0 1-1.3-.53c-.4-.39-.77-.81-1.15-1.21a3.2 3.2 0 0 0-.37-.34c-.32-.24-.63-.19-.77.18a7.13 7.13 0 0 0-.24 1.23.65.65 0 0 1-.68.63 6.41 6.41 0 0 1-3.47-.65 7.33 7.33 0 0 1-2.3-2A24.28 24.28 0 0 1 5.44 12c0-.07-.78-1.65-.8-1.73a.44.44 0 0 1 .21-.57c.13-.05 2.57 0 2.62 0a.85.85 0 0 1 .82.59 12.8 12.8 0 0 0 1.84 3.22 1.72 1.72 0 0 0 .37.34.28.28 0 0 0 .47-.14 4 4 0 0 0 .17-1v-1.75a.86.86 0 0 0-.79-.91c-.19 0-.21-.19-.09-.35a1.22 1.22 0 0 1 1-.4h1.89a3.75 3.75 0 0 1 .77.08.7.7 0 0 1 .56.62 2.65 2.65 0 0 1 0 .5c0 .72-.05 1.44-.06 2.16a3.76 3.76 0 0 0 .08.85c.08.38.35.48.61.2a9.38 9.38 0 0 0 .89-1.1 11.47 11.47 0 0 0 1.22-2.36c.17-.43.3-.52.76-.52h2.59a1.56 1.56 0 0 1 .46.06.4.4 0 0 1 .27.51 4.3 4.3 0 0 1-.77 1.52c-.53.75-1.08 1.48-1.62 2.21a2.82 2.82 0 0 0-.19.3.61.61 0 0 0 .13.87z" id="dСлой_1-2" data-name="Слой 1"/></g></symbol><symbol viewBox="0 0 26.94 26.94" id="youtube" xmlns="http://www.w3.org/2000/svg"><defs><style>.ecls-1{fill:#3d94d1}</style></defs><title>ютуб_1</title><g id="eСлой_2" data-name="Слой 2"><g id="eСлой_1-2" data-name="Слой 1"><path class="ecls-1" d="M11.63 16.25l4.64-2.41-4.64-2.42z"/><path class="ecls-1" d="M13.47 0a13.47 13.47 0 1 0 13.47 13.47A13.47 13.47 0 0 0 13.47 0zm7 18a1.74 1.74 0 0 1-.81.82c-1 .5-10.85.5-12.12.08a1.74 1.74 0 0 1-1.15-1.11c-.5-1.37-.64-7.08.31-8.2a1.85 1.85 0 0 1 1.25-.66c2.58-.28 10.54-.24 11.46.09a1.79 1.79 0 0 1 1.13 1.08c.54 1.43.56 6.57-.08 7.9z"/></g></g></symbol></svg>