<svg xmlns="http://www.w3.org/2000/svg" viewBox="0 0 39.59 46.87"><defs><style>.cls-1{fill:#008ed1}</style></defs><title>оформить резюме</title><g id="Слой_2" data-name="Слой 2"><g id="Слой_2-2" data-name="Слой 2"><path class="cls-1" d="M34.85 46.87H4.74A4.73 4.73 0 0 1 0 42.15V4.72A4.73 4.73 0 0 1 4.74 0h30.11a4.73 4.73 0 0 1 4.73 4.72v37.43a4.73 4.73 0 0 1-4.73 4.72zM4.74 2a2.82 2.82 0 0 0-2.86 2.72v37.43a2.82 2.82 0 0 0 2.86 2.77h30.11a2.82 2.82 0 0 0 2.86-2.77V4.72A2.82 2.82 0 0 0 34.85 2z"/><path class="cls-1" d="M29.72 40.54H9.36a1 1 0 0 1 0-2h20.36a1 1 0 0 1 0 2zm-3.11-4.9H9.36a1 1 0 0 1 0-2h17.25a1 1 0 0 1 0 2zm0-5H9.36a1 1 0 0 1 0-2h17.25a1 1 0 0 1 0 2zM30 25.59H9.36a1 1 0 0 1 0-2H30a1 1 0 0 1 0 2zm-3.39-4.85H9.36a1 1 0 0 1 0-2h17.25a1 1 0 0 1 0 2zm0-5.18H9.36a1 1 0 0 1 0-2h17.25a1 1 0 0 1 0 2zm3.11-4.72H9.36a1 1 0 0 1 0-2h20.36a1 1 0 0 1 0 2z"/></g></g></svg>