<svg xmlns="http://www.w3.org/2000/svg" viewBox="0 0 43.83 49.95"><defs><style>.cls-1{fill:#faa619}</style></defs><title>ваш заказ готов</title><g id="Слой_2" data-name="Слой 2"><path class="cls-1" d="M40.16 27a4 4 0 0 0 .48-1.91v-1.03a3.87 3.87 0 0 0-4.16-3.92H25.69c3.52-6.55 3.53-9.46 1.87-13.85C25.38.56 22.2-.6 19.94.25A3.3 3.3 0 0 0 17.75 4a18.56 18.56 0 0 1 .65 7.46c-.81 5-4.3 6.7-8.34 8.68C5.11 22.59-.5 25.34 0 35.08l.23 4.09c.33 6 6 10.77 10.55 10.77h9a7.8 7.8 0 0 0 2.84-.54 4.64 4.64 0 0 0 1.45.24H34a4 4 0 0 0 4.16-4v-1.07a4 4 0 0 0-.45-1.85 3.88 3.88 0 0 0 3.51-3.93v-1.08a4 4 0 0 0-.48-1.91 3.75 3.75 0 0 0 3.09-3.8v-1.08A3.8 3.8 0 0 0 40.16 27zm-2-3v1.08c0 1.11-1.26 1.19-1.64 1.19H25.19c-.27 0-1.64-.06-1.64-1.19v-1.02c0-.94 1.08-1.2 1.72-1.2h11.21c.39.01 1.64.14 1.64 1.2zM10.81 47.22c-3 0-7.78-3.53-8-8.21l-.23-4.09C2.12 27 6.28 25 11.1 22.64c4.09-2 8.74-4.29 9.78-10.69a20.9 20.9 0 0 0-.7-8.61 1.06 1.06 0 0 1 .89-.59c1.11-.15 2.79 1 4.16 4.59s1.53 5.73-2.41 12.66a1.43 1.43 0 0 0-.16.88A3.74 3.74 0 0 0 21 24.06v1.08a3.84 3.84 0 0 0 .81 2.42 3.72 3.72 0 0 0-1.94 3.37V32a3.78 3.78 0 0 0 1.2 2.83 3.89 3.89 0 0 0-1.2 2.88v1.08a3.89 3.89 0 0 0 1.21 2.89 3.89 3.89 0 0 0-1.21 2.89v1.08a4.13 4.13 0 0 0 .29 1.53h-.41zm24.8-1.58c0 1.23-1.48 1.27-1.64 1.27h-9.9c-.17 0-1.64 0-1.64-1.27v-1.07c0-1.24 1.48-1.27 1.64-1.27H34c.17 0 1.64 0 1.64 1.27zm3.07-6.86c0 1.23-1.48 1.27-1.64 1.27h-13c-.17 0-1.64 0-1.64-1.27v-1.07c0-1.24 1.48-1.27 1.64-1.27H37c.17 0 1.64 0 1.64 1.27zM41.31 32c0 1.11-1.26 1.19-1.64 1.19H24.06c-.27 0-1.64-.06-1.64-1.19v-1.08c0-1.14 1.37-1.2 1.64-1.2h15.61c.39 0 1.64.09 1.64 1.2z" id="Слой_2-2" data-name="Слой 2"/></g></svg>