<svg xmlns="http://www.w3.org/2000/svg" viewBox="0 0 44.02 50.93"><defs><style>.cls-1{fill:#faa619}</style></defs><title>выбрать исполнителя</title><g id="Слой_2" data-name="Слой 2"><g id="Слой_2-2" data-name="Слой 2"><path class="cls-1" d="M10.29 36.51a2 2 0 0 1-1.22-.42l-1.89-1.5a.91.91 0 0 1 1.13-1.42l1.89 1.5a.14.14 0 0 0 .2 0l3.36-4.33a.91.91 0 0 1 1.43 1.11l-3.36 4.33a2 2 0 0 1-1.31.74zm0-8.79a2 2 0 0 1-1.22-.42l-1.89-1.5a.91.91 0 1 1 1.13-1.42l1.89 1.5a.14.14 0 0 0 .2 0l3.36-4.33a.91.91 0 0 1 1.43 1.11L11.84 27a2 2 0 0 1-1.31.74zm0-8.12a2 2 0 0 1-1.22-.42l-1.89-1.5a.91.91 0 1 1 1.13-1.42l1.89 1.5a.14.14 0 0 0 .2 0l3.36-4.33a.91.91 0 0 1 1.43 1.11l-3.36 4.33a2 2 0 0 1-1.31.74zM35 17.31H20.51a1.12 1.12 0 1 1 0-2.24H35a1.12 1.12 0 1 1 0 2.24zm0 9.09H20.51a1.12 1.12 0 1 1 0-2.24H35a1.12 1.12 0 1 1 0 2.24zm0 9.08H20.51a1.12 1.12 0 1 1 0-2.24H35a1.12 1.12 0 1 1 0 2.24z"/><path class="cls-1" d="M32.52 50.93H2.42A2.42 2.42 0 0 1 0 48.51V2.42A2.42 2.42 0 0 1 2.42 0h39.19A2.42 2.42 0 0 1 44 2.42v37.65l-.06.18-.08.16v.06l-.08.14v.05l-.09.13-.06.08-.1.11-.05.05-9.09 9.09h-.05l-.12.1-.07.05-.13.09h-.06l-.14.08h-.06l-.16.07-.18.06H33zm.85-.15zm.06 0zm.4-.21zM2.42 2.24a.18.18 0 0 0-.18.18v46.09a.18.18 0 0 0 .18.18h30.22l9-9v-37a.18.18 0 0 0-.18-.18zm30.16 46.44zm0 0zm0 0zm10.77-7.59zm.65-1.25z"/></g></g></svg>