<svg xmlns="http://www.w3.org/2000/svg" viewBox="0 0 52.93 49.47"><defs><style>.cls-1{fill:#faa619}</style></defs><title>оформить заявку</title><g id="Слой_2" data-name="Слой 2"><g id="Слой_2-2" data-name="Слой 2"><path class="cls-1" d="M49.93 49.47H3a3 3 0 0 1-3-3V3a3 3 0 0 1 3-3h46.93a3 3 0 0 1 3 3v43.47a3 3 0 0 1-3 3zM3 2a1 1 0 0 0-1 1v43.47a1 1 0 0 0 1 1h46.93a1 1 0 0 0 1-1V3a1 1 0 0 0-1-1z"/><circle class="cls-1" cx="46.46" cy="4.87" r="1.83"/><circle class="cls-1" cx="41.46" cy="4.87" r="1.83"/><circle class="cls-1" cx="36.46" cy="4.87" r="1.83"/><path class="cls-1" d="M1.4 8.77h50.53v2H1.4z"/><rect class="cls-1" x="13.28" y="30.5" width="26.77" height="6.42" rx="2" ry="2"/></g></g></svg>