<svg xmlns="http://www.w3.org/2000/svg" viewBox="0 0 26.94 26.94"><defs><style>.cls-1{fill:#3d94d1}</style></defs><title>инста_1</title><g id="Слой_2" data-name="Слой 2"><g id="Слой_1-2" data-name="Слой 1"><path class="cls-1" d="M17.37 7.32h-7.8a2.26 2.26 0 0 0-2.25 2.25v7.79a2.26 2.26 0 0 0 2.26 2.26h7.79a2.26 2.26 0 0 0 2.26-2.26V9.57a2.26 2.26 0 0 0-2.26-2.25zm-3.9 10.2a4.05 4.05 0 1 1 4.05-4.05 4.06 4.06 0 0 1-4.05 4.05zm4.18-7.27a1 1 0 1 1 1-1 1 1 0 0 1-1 1.01z"/><circle class="cls-1" cx="13.47" cy="13.47" r="2.34"/><path class="cls-1" d="M13.47 0a13.47 13.47 0 1 0 13.47 13.47A13.47 13.47 0 0 0 13.47 0zm7.87 17.37a4 4 0 0 1-4 4H9.57a4 4 0 0 1-4-4v-7.8a4 4 0 0 1 4-4h7.79a4 4 0 0 1 4 4z"/></g></g></svg>