<svg xmlns="http://www.w3.org/2000/svg" viewBox="0 0 49.55 49.27"><defs><style>.cls-1{fill:#faa619}</style></defs><title>мастера</title><g id="Слой_2" data-name="Слой 2"><path class="cls-1" d="M45 7.21l-1.62.38a1 1 0 0 0-.49.27L26.13 24.6l-.18-.18-1.27-1.27L41.41 6.42a1 1 0 0 0 .27-.49l.37-1.58 4.77-2.09.43.43L45 7.21zM26.11 30.39l-7.22-7.22 1.45-1.45 7.23 7.23-1.45 1.45zM5.36 45L4 43.64m-1.44-1.47a2.05 2.05 0 0 1 .1-2.79l12-12A3.09 3.09 0 0 0 18.75 26l4.56 4.56a3.09 3.09 0 0 0-1.45 4.11l-12 12a2.06 2.06 0 0 1-2.9 0l-.17-.17M49.25 1.76L47.79.3a1 1 0 0 0-1.14-.21l-5.89 2.57a1 1 0 0 0-.59.71l-.42 1.8-16.53 16.52-2.16-2.16a1 1 0 0 0-1.46 0l-2.91 2.91-.07.08v.51a1 1 0 0 0 0 .2v.38l.05.08.05.07.07.08a1 1 0 1 1-1.45 1.45 1 1 0 0 0-1.46 0L1.2 37.93a4.12 4.12 0 0 0 0 5.82l3.42 3.42.9.9a4.12 4.12 0 0 0 5.82 0l12.59-12.58a1 1 0 0 0 0-1.46 1 1 0 0 1 1.45-1.45 1 1 0 0 0 .71.3h.05a1 1 0 0 0 .62-.23l.08-.07 2.91-2.91a1 1 0 0 0 0-1.46l-2.16-2.16L44.11 9.53l1.8-.42a1 1 0 0 0 .68-.54L49.44 3a1 1 0 0 0-.19-1.2z" id="Слой_1-2" data-name="Слой 1"/></g></svg>