<svg xmlns="http:/a/www.w3.org/2000/svg" viewBox="0 0 55.29 29.24"><defs><style>.cls-1{fill:silver}</style></defs><title>аренда транспорта 1</title><g id="Слой_2" data-name="Слой 2"><g id="Слой_1-2" data-name="Слой 1"><path class="cls-1" d="M52.44 10.78H2.85A2.85 2.85 0 0 0 0 13.63v8.25a2.85 2.85 0 0 0 2.85 2.85h1.63a7.51 7.51 0 0 1-.05-.85 7.09 7.09 0 0 1 7.16-7.16 7.09 7.09 0 0 1 7.16 7.16 7.51 7.51 0 0 1-.05.85h18a7.51 7.51 0 0 1-.05-.85 7.16 7.16 0 0 1 14.32 0 7.51 7.51 0 0 1-.05.85h1.54a2.85 2.85 0 0 0 2.85-2.85v-8.25a2.85 2.85 0 0 0-2.87-2.85zM26.79 0h-8.58a6.35 6.35 0 0 0-5.28 3L9.17 9h17.62zm18.84 9a7.79 7.79 0 0 1-.85-1l-3-5a6.24 6.24 0 0 0-5.28-3h-7.92v9z"/><path class="cls-1" d="M11.59 18.51a5.31 5.31 0 0 0-5.36 5.36 5.53 5.53 0 0 0 .08.85 5.34 5.34 0 0 0 10.56 0 5.53 5.53 0 0 0 .08-.85 5.31 5.31 0 0 0-5.36-5.36zm32.2 0a5.31 5.31 0 0 0-5.36 5.36 5.53 5.53 0 0 0 .08.85 5.34 5.34 0 0 0 10.56 0 5.53 5.53 0 0 0 .08-.85 5.31 5.31 0 0 0-5.36-5.36z"/></g></g></svg>