<svg xmlns="http://www.w3.org/2000/svg" viewBox="0 0 26.94 26.94"><defs><style>.cls-1{fill:#3d94d1}</style></defs><title>телеграм 2</title><g id="Слой_2" data-name="Слой 2"><g id="Слой_1-2" data-name="Слой 1"><path class="cls-1" d="M17.84 9.49l-9 5.6a.41.41 0 0 0-.18.47l1.21 3.9a.08.08 0 0 0 .15 0l.29-2.62a.41.41 0 0 1 .14-.26l7.64-6.76a.2.2 0 0 0-.25-.33z"/><path class="cls-1" d="M13.47 0a13.47 13.47 0 1 0 13.47 13.47A13.47 13.47 0 0 0 13.47 0zm7.8 7.79l-2.81 13.44a.89.89 0 0 1-1.39.53l-4.24-3.11-2.16 2.21a.72.72 0 0 1-1.2-.29l-1.56-5-4.18-1.19a.6.6 0 0 1 0-1.13l16.41-6.42a.85.85 0 0 1 1.13.96z"/></g></g></svg>