<svg xmlns="http://www.w3.org/2000/svg" viewBox="0 0 26.94 26.94"><defs><style>.cls-1{fill:#3d94d1}</style></defs><title>твиттер_1</title><g id="Слой_2" data-name="Слой 2"><path class="cls-1" d="M13.47 0a13.47 13.47 0 1 0 13.47 13.47A13.47 13.47 0 0 0 13.47 0zm7.48 9.69a6.32 6.32 0 0 1-1.17 1.11.11.11 0 0 0-.05.1 8.91 8.91 0 0 1-.06 1.43 9.49 9.49 0 0 1-.83 2.87 9.3 9.3 0 0 1-1.74 2.54 8.62 8.62 0 0 1-4.43 2.47 9.58 9.58 0 0 1-1.8.21A9.1 9.1 0 0 1 5.7 19h-.08a6.51 6.51 0 0 0 3.23-.45 6.34 6.34 0 0 0 1.53-.89 3.23 3.23 0 0 1-3-2.24 3.21 3.21 0 0 0 1.38 0 3.22 3.22 0 0 1-2.09-1.48 3.13 3.13 0 0 1-.47-1.72 3.18 3.18 0 0 0 1.44.39 3.24 3.24 0 0 1-1.33-2 3.2 3.2 0 0 1 .35-2.34 9.23 9.23 0 0 0 6.65 3.37c0-.13 0-.24-.05-.35a3.14 3.14 0 0 1 .47-2.11A3.1 3.1 0 0 1 16 7.71a3.14 3.14 0 0 1 2.82.9.16.16 0 0 0 .17.05 6.52 6.52 0 0 0 1.88-.72 3.3 3.3 0 0 1-1.38 1.76 6.18 6.18 0 0 0 1.8-.48c-.1.14-.22.31-.34.47z" id="Слой_1-2" data-name="Слой 1"/></g></svg>