<svg xmlns="http://www.w3.org/2000/svg" viewBox="0 0 26.94 26.94"><defs><style>.cls-1{fill:#3d94d1}</style></defs><title>ютуб_1</title><g id="Слой_2" data-name="Слой 2"><g id="Слой_1-2" data-name="Слой 1"><path class="cls-1" d="M11.63 16.25l4.64-2.41-4.64-2.42z"/><path class="cls-1" d="M13.47 0a13.47 13.47 0 1 0 13.47 13.47A13.47 13.47 0 0 0 13.47 0zm7 18a1.74 1.74 0 0 1-.81.82c-1 .5-10.85.5-12.12.08a1.74 1.74 0 0 1-1.15-1.11c-.5-1.37-.64-7.08.31-8.2a1.85 1.85 0 0 1 1.25-.66c2.58-.28 10.54-.24 11.46.09a1.79 1.79 0 0 1 1.13 1.08c.54 1.43.56 6.57-.08 7.9z"/></g></g></svg>