<svg xmlns="http://www.w3.org/2000/svg" viewBox="0 0 26.94 26.94"><defs><style>.cls-1{fill:#3d94d1;}</style></defs><title>фб_1</title><g id="Слой_2" data-name="Слой 2"><g id="Слой_1-2" data-name="Слой 1"><path class="cls-1" d="M13.47,0A13.47,13.47,0,1,0,26.94,13.47,13.47,13.47,0,0,0,13.47,0Zm3.87,8.89h-.19c-.47,0-.94,0-1.41,0-.64,0-1.12.27-1.14,1.07,0,.59,0,1.94,0,1.94h2.69l-.36,2.74H14.59v6.85H11.75V14.64H9.42V11.91h2.34V11.7c0-.55,0-1.1,0-1.65a7.05,7.05,0,0,1,.09-1,3.05,3.05,0,0,1,1.23-2,3.54,3.54,0,0,1,2-.63c.48,0,1,0,1.45,0,.26,0,.52,0,.78.07Z"/></g></g></svg>