<svg xmlns="http://www.w3.org/2000/svg" viewBox="0 0 44.02 50.93"><defs><style>.cls-1{fill:#faa619;}</style></defs><title>выбрать исполнителя</title><g id="Слой_2" data-name="Слой 2"><g id="Слой_2-2" data-name="Слой 2"><path class="cls-1" d="M10.29,36.51a2,2,0,0,1-1.22-.42l-1.89-1.5a.91.91,0,0,1,1.13-1.42l1.89,1.5a.14.14,0,0,0,.2,0l3.36-4.33a.91.91,0,0,1,1.43,1.11l-3.36,4.33a2,2,0,0,1-1.31.74Z"/><path class="cls-1" d="M10.29,27.72a2,2,0,0,1-1.22-.42l-1.89-1.5a.91.91,0,1,1,1.13-1.42l1.89,1.5a.14.14,0,0,0,.2,0l3.36-4.33a.91.91,0,0,1,1.43,1.11L11.84,27a2,2,0,0,1-1.31.74Z"/><path class="cls-1" d="M10.29,19.6a2,2,0,0,1-1.22-.42l-1.89-1.5a.91.91,0,1,1,1.13-1.42l1.89,1.5a.14.14,0,0,0,.2,0l3.36-4.33a.91.91,0,0,1,1.43,1.11l-3.36,4.33a2,2,0,0,1-1.31.74Z"/><path class="cls-1" d="M35,17.31H20.51a1.12,1.12,0,1,1,0-2.24H35a1.12,1.12,0,1,1,0,2.24Z"/><path class="cls-1" d="M35,26.4H20.51a1.12,1.12,0,1,1,0-2.24H35a1.12,1.12,0,1,1,0,2.24Z"/><path class="cls-1" d="M35,35.48H20.51a1.12,1.12,0,1,1,0-2.24H35a1.12,1.12,0,1,1,0,2.24Z"/><path class="cls-1" d="M32.52,50.93H2.42A2.42,2.42,0,0,1,0,48.51V2.42A2.42,2.42,0,0,1,2.42,0H41.61A2.42,2.42,0,0,1,44,2.42v37c0,.08,0,.16,0,.24s0,.11,0,.16v.07c0,.06,0,.12,0,.18h0v0l-.06.18,0,0-.08.16,0,.06-.08.14,0,.05-.09.13-.06.08-.1.11-.05.05-9.09,9.09h0l-.05,0-.12.1-.07.05-.13.09-.06,0-.14.08-.06,0-.16.07,0,0-.18.06h0l-.18,0h-.08l-.16,0Zm.85-.15h0Zm.06,0h0Zm.4-.21h0ZM2.42,2.24a.18.18,0,0,0-.18.18V48.51a.18.18,0,0,0,.18.18H32.64l0,0,9-9,0,0h0v0h0v-37a.18.18,0,0,0-.18-.18ZM32.58,48.68h0Zm0,0h0Zm0,0h0Zm10.77-7.59h0ZM44,39.84v0Z"/></g></g></svg>