<svg xmlns="http://www.w3.org/2000/svg" viewBox="0 0 45.75 47.13"><defs><style>.cls-1{fill:#008ed1;}</style></defs><title>доход</title><g id="Слой_2" data-name="Слой 2"><g id="Слой_2-2" data-name="Слой 2"><path class="cls-1" d="M32.05,8.94c-1.63,0-4.46,1.73-6.6,4a22.15,22.15,0,0,0-2.57-.15A20.26,20.26,0,0,0,10,17.17a14.85,14.85,0,0,0-5.24,8.28,2.43,2.43,0,0,1-.68-1.69,2,2,0,0,0-4.1,0A6.54,6.54,0,0,0,4.6,30a14.56,14.56,0,0,0,5.12,9.06L8.85,44a2,2,0,0,0,1.66,2.37l4.19.74a2.07,2.07,0,0,0,.36,0,2,2,0,0,0,2-1.69L17.5,43a22,22,0,0,0,10.77,0l.42,2.4a2,2,0,0,0,2,1.69h0a2.08,2.08,0,0,0,.36,0l4.19-.74A2,2,0,0,0,36.93,44l-.87-4.93a15.74,15.74,0,0,0,3.71-4.62h2.49a3.5,3.5,0,0,0,3.49-3.49v-5.4A3.5,3.5,0,0,0,42.26,22H39.76a15.77,15.77,0,0,0-3.84-4.74,24.7,24.7,0,0,0-.49-4.82c-.68-2.94-2.21-3.55-3.37-3.55Zm-6.24,5.9a.93.93,0,0,0,.69-.31c2.06-2.31,4.62-3.73,5.55-3.73.71,0,1.24.71,1.57,2.12a24.29,24.29,0,0,1,.45,4.86.93.93,0,0,0,.35.71,13.84,13.84,0,0,1,3.92,4.89.93.93,0,0,0,.84.54h3.07a1.64,1.64,0,0,1,1.64,1.64v5.4a1.64,1.64,0,0,1-1.64,1.64H39.19a.93.93,0,0,0-.84.54A13.83,13.83,0,0,1,34.47,38a.93.93,0,0,0-.33.88l1,5.46a.19.19,0,0,1-.16.22l-4.19.74h0a.19.19,0,0,1-.19-.16l-.6-3.41A.93.93,0,0,0,28.73,41,20,20,0,0,1,17,41a.93.93,0,0,0-1.19.72l-.6,3.41a.19.19,0,0,1-.19.16h0l-4.19-.74a.19.19,0,0,1-.16-.22l1-5.46a.93.93,0,0,0-.33-.88,12.72,12.72,0,0,1-4.93-8.79.93.93,0,0,0-.75-.83,4.68,4.68,0,0,1-3.77-4.59.19.19,0,1,1,.38,0,4.28,4.28,0,0,0,2.95,4.07A.93.93,0,0,0,6.4,27a12.56,12.56,0,0,1,4.8-8.44,18.41,18.41,0,0,1,11.69-4,20.26,20.26,0,0,1,2.8.19Z"/><path class="cls-1" d="M22.89,0a4.68,4.68,0,1,0,4.68,4.68A4.69,4.69,0,0,0,22.89,0Zm0,7.51a2.83,2.83,0,1,1,2.83-2.83,2.83,2.83,0,0,1-2.83,2.83Z"/><path class="cls-1" d="M22.89,17a15.39,15.39,0,0,0-4.66.71.93.93,0,0,0,.28,1.81h0a.93.93,0,0,0,.28,0,13.75,13.75,0,0,1,8.2,0,.93.93,0,0,0,.56-1.77A15.38,15.38,0,0,0,22.89,17Z"/></g></g></svg>