<svg xmlns="http://www.w3.org/2000/svg" viewBox="0 0 39.59 46.87"><defs><style>.cls-1{fill:#008ed1;}</style></defs><title>оформить резюме</title><g id="Слой_2" data-name="Слой 2"><g id="Слой_2-2" data-name="Слой 2"><path class="cls-1" d="M34.85,46.87H4.74A4.73,4.73,0,0,1,0,42.15V4.72A4.73,4.73,0,0,1,4.74,0H34.85a4.73,4.73,0,0,1,4.73,4.72V42.15A4.73,4.73,0,0,1,34.85,46.87ZM4.74,2A2.82,2.82,0,0,0,1.88,4.72V42.15a2.82,2.82,0,0,0,2.86,2.77H34.85a2.82,2.82,0,0,0,2.86-2.77V4.72A2.82,2.82,0,0,0,34.85,2Z"/><path class="cls-1" d="M29.72,40.54H9.36a1,1,0,0,1,0-2H29.72a1,1,0,0,1,0,2Z"/><path class="cls-1" d="M26.61,35.64H9.36a1,1,0,0,1,0-2H26.61a1,1,0,0,1,0,2Z"/><path class="cls-1" d="M26.61,30.64H9.36a1,1,0,0,1,0-2H26.61a1,1,0,0,1,0,2Z"/><path class="cls-1" d="M30,25.59H9.36a1,1,0,0,1,0-2H30a1,1,0,0,1,0,2Z"/><path class="cls-1" d="M26.61,20.74H9.36a1,1,0,0,1,0-2H26.61a1,1,0,0,1,0,2Z"/><path class="cls-1" d="M26.61,15.56H9.36a1,1,0,0,1,0-2H26.61a1,1,0,0,1,0,2Z"/><path class="cls-1" d="M29.72,10.84H9.36a1,1,0,0,1,0-2H29.72a1,1,0,0,1,0,2Z"/></g></g></svg>