<svg xmlns="http://www.w3.org/2000/svg" viewBox="0 0 44.04 46.07"><defs><style>.cls-1{fill:#008ed1;}</style></defs><title>нажать на кнопку</title><g id="Слой_2" data-name="Слой 2"><g id="Слой_2-2" data-name="Слой 2"><path class="cls-1" d="M32.4,8.42a3.21,3.21,0,0,0-2.28.94L14.44,25a9.84,9.84,0,0,0-2.89,8L.29,44.35a1,1,0,0,0,1.42,1.42L13.33,34.16a1,1,0,0,0,.28-.87,7.85,7.85,0,0,1,2.25-6.83L31.55,10.78a1.21,1.21,0,0,1,1.71,1.71l-9.6,9.6a1,1,0,0,0,1.42,1.42l3.21-3.21h0A1.21,1.21,0,0,1,30,22L27.8,24.21l0,0h0l-1.54,1.54a1,1,0,0,0,1.42,1.42l1.56-1.56a1.21,1.21,0,0,1,1.7,1.72l-1.36,1.36h0l-.73.73a1,1,0,0,0,1.42,1.42l.74-.74a1.21,1.21,0,0,1,1.7,1.71L27,37.57a7.87,7.87,0,0,1-5.59,2.35,8,8,0,0,1-1.23-.1H20a1,1,0,0,0-.71.29L15,44.35a1,1,0,1,0,1.42,1.42l3.9-3.9a10,10,0,0,0,1,.05,9.86,9.86,0,0,0,7-2.94l5.72-5.72A3.22,3.22,0,0,0,32.93,28a3.22,3.22,0,0,0-1.61-4.44l.1-.1a3.22,3.22,0,0,0-1-5.24l4.28-4.28a3.22,3.22,0,0,0-2.28-5.5Z"/><path class="cls-1" d="M32.4,0A11.63,11.63,0,0,0,21,13.86a1,1,0,0,0,1,.82l.19,0a1,1,0,0,0,.8-1.18A9.63,9.63,0,1,1,34.64,21a1,1,0,0,0,.23,2l.23,0A11.64,11.64,0,0,0,32.4,0Z"/><path class="cls-1" d="M32.4,4.66a6.92,6.92,0,0,0-4.93,2A1,1,0,0,0,28.9,8.13a5,5,0,0,1,7,7,1,1,0,1,0,1.42,1.42A7,7,0,0,0,32.4,4.66Z"/></g></g></svg>