<svg xmlns="http://www.w3.org/2000/svg" viewBox="0 0 26.94 26.94"><defs><style>.cls-1{fill:#3d94d1;}</style></defs><title>инста_1</title><g id="Слой_2" data-name="Слой 2"><g id="Слой_1-2" data-name="Слой 1"><path class="cls-1" d="M17.37,7.32H9.57A2.26,2.26,0,0,0,7.32,9.57v7.79a2.26,2.26,0,0,0,2.26,2.26h7.79a2.26,2.26,0,0,0,2.26-2.26V9.57A2.26,2.26,0,0,0,17.37,7.32Zm-3.9,10.2a4.05,4.05,0,1,1,4.05-4.05A4.06,4.06,0,0,1,13.47,17.52Zm4.18-7.27a1,1,0,1,1,1-1A1,1,0,0,1,17.65,10.26Z"/><circle class="cls-1" cx="13.47" cy="13.47" r="2.34"/><path class="cls-1" d="M13.47,0A13.47,13.47,0,1,0,26.94,13.47,13.47,13.47,0,0,0,13.47,0Zm7.87,17.37a4,4,0,0,1-4,4H9.57a4,4,0,0,1-4-4V9.57a4,4,0,0,1,4-4h7.79a4,4,0,0,1,4,4Z"/><path class="cls-1" d="M13.47,13.47"/></g></g></svg>