<svg xmlns="http://www.w3.org/2000/svg" viewBox="0 0 762.18 139.33"><defs><style>.cls-1{fill:#008ed1;}.cls-2{fill:#f6a500;}</style></defs><title>Ресурс 16</title><g id="Слой_2" data-name="Слой 2"><g id="Ñëîé_1" data-name="Ñëîé 1"><g id="_Группа_" data-name="&lt;Группа&gt;"><g id="_Группа_2" data-name="&lt;Группа&gt;"><path class="cls-1" d="M52.35,45.56q3.6-.53,6.39-.8t5.2-.27q2.26,0,5.46.27t6.26.8V94a67.75,67.75,0,0,1-15.52,3.86A111,111,0,0,1,47,98.84a53,53,0,0,1-20.52-3.66A40.68,40.68,0,0,1,11.79,85,42.1,42.1,0,0,1,2.93,69.4,63.68,63.68,0,0,1,0,49.69,61.75,61.75,0,0,1,3.06,29.91a46.09,46.09,0,0,1,8.86-15.79A39.86,39.86,0,0,1,26.24,3.73,47.78,47.78,0,0,1,45.56,0,76.65,76.65,0,0,1,57.75.93,55.9,55.9,0,0,1,70.47,4.8a39.8,39.8,0,0,1-2,10.66,62.06,62.06,0,0,1-3.6,8.79q-2.67-.93-4.86-1.6t-4.2-1.07q-2-.4-4-.6t-4.26-.2q-10.79,0-16.65,7.26T25,49.69q0,14.26,5.73,21.25t17.05,7a23.17,23.17,0,0,0,4.53-.4Z"/></g><g id="_Группа_3" data-name="&lt;Группа&gt;"><path class="cls-1" d="M264.85,26.91a59.22,59.22,0,0,1,18.45,2.53,33.69,33.69,0,0,1,12.59,7.13,27.21,27.21,0,0,1,7.19,11.12,44.16,44.16,0,0,1,2.26,14.52A46.63,46.63,0,0,1,303,77.4,28.74,28.74,0,0,1,295.69,89a33.34,33.34,0,0,1-12.92,7.39A61.82,61.82,0,0,1,263.65,99q-6.53,0-11.66-.46t-10.72-1.27V28.78q5.6-.67,11.86-1.27T264.85,26.91Zm-1.06,53a9.81,9.81,0,0,1,1.4.13,18.73,18.73,0,0,0,2.6.13q7.46,0,11.12-4.2t3.66-13.79q0-8.52-3.6-12.45t-10.26-3.93c-1.06,0-2,0-2.93.13s-1.56.18-2,.27Z"/></g><g id="_Группа_4" data-name="&lt;Группа&gt;"><path class="cls-1" d="M316.05,1.87q3.07-.4,9.39-1.13A142.62,142.62,0,0,1,341.37,0a78.39,78.39,0,0,1,14.25,1.33,36.53,36.53,0,0,1,13,5A27.17,27.17,0,0,1,378,16.65q3.59,6.66,3.59,17.32,0,9.46-2.86,15.72a26.44,26.44,0,0,1-7.59,10A29.26,29.26,0,0,1,360.35,65a48.7,48.7,0,0,1-12.45,1.6q-2.53,0-5.13-.2a25,25,0,0,1-3.66-.47V97q-3.47.67-6.26.93t-5.19.27A70,70,0,0,1,316.05,97Zm23,45a8.47,8.47,0,0,0,2.27.4c1.06.09,2.17.13,3.33.13A13.17,13.17,0,0,0,354,44.09q3.59-3.33,3.6-10.12a17.61,17.61,0,0,0-1.13-6.73,11.16,11.16,0,0,0-3.13-4.39,11.58,11.58,0,0,0-4.66-2.33,23.07,23.07,0,0,0-5.59-.67h-1.86a17.33,17.33,0,0,0-2.13.13Z"/></g><g id="_Группа_5" data-name="&lt;Группа&gt;"><path class="cls-1" d="M391.33,28.78q6.26-.8,13-1.33T417,26.91q16.12,0,24.18,6.06t8.06,17a24.8,24.8,0,0,1-.93,7.19,23.08,23.08,0,0,1-2.27,5.26,15.78,15.78,0,0,1-2.8,3.53q-1.47,1.33-2.4,2.13l15.19,29a52.43,52.43,0,0,1-5.93.8q-3.27.26-6.33.27-3.73,0-7.19-.27a38.88,38.88,0,0,1-5.73-.8L416.11,65.67,418,64.61q4.66-2.66,6.4-5.66a12.72,12.72,0,0,0,1.73-6.46A7.93,7.93,0,0,0,424,46.83q-2.07-2.2-6.59-2.2a20.9,20.9,0,0,0-3.86.27V97.24a53.48,53.48,0,0,1-6.26.87q-2.8.2-4.93.2t-4.93-.2a54.07,54.07,0,0,1-6.13-.87Z"/></g><g id="_Группа_6" data-name="&lt;Группа&gt;"><path class="cls-1" d="M487,97.24q-3.47.53-6.26.8t-5.06.27q-2.27,0-5.06-.27t-6.13-.8V28.51a44.76,44.76,0,0,1,5.8-.93q2.86-.26,5.53-.27t5.46.27a40.5,40.5,0,0,1,5.73.93Z"/></g><g id="_Группа_7" data-name="&lt;Группа&gt;"><path class="cls-1" d="M497.6,63a45.18,45.18,0,0,1,2.27-14.65A31.26,31.26,0,0,1,506.52,37a30.56,30.56,0,0,1,10.79-7.39A37.87,37.87,0,0,1,532,26.91q2.8,0,5.33.13a47,47,0,0,1,5,.53,37.73,37.73,0,0,1,5.06,1.2q2.6.8,5.8,2a30.86,30.86,0,0,1-.8,9A37,37,0,0,1,549,48.49q-2.27-.8-4.06-1.27c-1.2-.31-2.33-.55-3.4-.73a26.65,26.65,0,0,0-3.13-.33c-1,0-2.11-.07-3.27-.07a15.19,15.19,0,0,0-10.59,3.8q-4.19,3.8-4.2,13.12a22.76,22.76,0,0,0,1.27,8.19A13.17,13.17,0,0,0,525,76.33,12.11,12.11,0,0,0,529.76,79a20.48,20.48,0,0,0,5.8.8,29.85,29.85,0,0,0,6.73-.67A53.12,53.12,0,0,0,549,77a32.62,32.62,0,0,1,3.6,8.06,35.77,35.77,0,0,1,1.33,10.19,48.38,48.38,0,0,1-11.19,3.07,77.79,77.79,0,0,1-10.12.66,41.47,41.47,0,0,1-15.05-2.53,29.51,29.51,0,0,1-11-7.26,30.8,30.8,0,0,1-6.73-11.32A45.46,45.46,0,0,1,497.6,63Z"/></g><g id="_Группа_8" data-name="&lt;Группа&gt;"><path class="cls-1" d="M581.37,70.07q1.46,5.46,5.13,7.73t9.66,2.27a45.85,45.85,0,0,0,8.66-.93,52.13,52.13,0,0,0,9.46-2.8,43,43,0,0,1,3.26,8.26,39.15,39.15,0,0,1,1.53,10A69.26,69.26,0,0,1,594.82,99a45.52,45.52,0,0,1-16.45-2.66,29.21,29.21,0,0,1-11.19-7.39,29.6,29.6,0,0,1-6.39-11.26,46.93,46.93,0,0,1-2.07-14.25,46.47,46.47,0,0,1,2.13-14.26,32.69,32.69,0,0,1,6.39-11.59,30.21,30.21,0,0,1,10.66-7.79,36.25,36.25,0,0,1,14.92-2.86,31.36,31.36,0,0,1,12.59,2.4,27.38,27.38,0,0,1,9.39,6.6A28.65,28.65,0,0,1,620.73,46a38.84,38.84,0,0,1,2.07,12.85,56.58,56.58,0,0,1-.33,6.46q-.33,2.87-.6,4.73ZM592,43.83a10.78,10.78,0,0,0-7.33,2.67q-3.07,2.67-3.6,8.26h21.31A13,13,0,0,0,599.55,47Q597,43.83,592,43.83Z"/></g></g><g id="_Группа_9" data-name="&lt;Группа&gt;"><path id="_Составной_контур_" data-name="&lt;Составной контур&gt;" class="cls-2" d="M86.26,63.28a47.65,47.65,0,0,1,2.2-14.85A31.57,31.57,0,0,1,95,36.9a28.82,28.82,0,0,1,10.72-7.39,39.08,39.08,0,0,1,14.79-2.6,39.47,39.47,0,0,1,14.92,2.6,28.82,28.82,0,0,1,10.72,7.39,31.57,31.57,0,0,1,6.53,11.52,47.6,47.6,0,0,1,2.2,14.85,45.9,45.9,0,0,1-2.2,14.59,31.11,31.11,0,0,1-6.53,11.32,28.48,28.48,0,0,1-10.72,7.26A40.42,40.42,0,0,1,120.49,99a40,40,0,0,1-14.79-2.53A28.49,28.49,0,0,1,95,89.19a31.11,31.11,0,0,1-6.53-11.32A46,46,0,0,1,86.26,63.28Zm45.82,0q0-8.52-2.86-13.06a9.63,9.63,0,0,0-8.73-4.53q-5.86,0-8.66,4.53T109,63.28q0,8.39,2.8,12.92t8.66,4.53q5.86,0,8.73-4.53T132.08,63.28Z"/><path id="_Составной_контур_2" data-name="&lt;Составной контур&gt;" class="cls-2" d="M162.17,63.28a47.65,47.65,0,0,1,2.2-14.85A31.58,31.58,0,0,1,170.9,36.9a28.82,28.82,0,0,1,10.72-7.39,43.8,43.8,0,0,1,29.71,0A28.82,28.82,0,0,1,222,36.9a31.58,31.58,0,0,1,6.53,11.52,47.6,47.6,0,0,1,2.2,14.85,45.9,45.9,0,0,1-2.2,14.59A31.11,31.11,0,0,1,222,89.19a28.49,28.49,0,0,1-10.72,7.26,44.89,44.89,0,0,1-29.71,0,28.48,28.48,0,0,1-10.72-7.26,31.11,31.11,0,0,1-6.53-11.32A46,46,0,0,1,162.17,63.28Zm45.82,0q0-8.52-2.86-13.06a9.63,9.63,0,0,0-8.73-4.53q-5.86,0-8.66,4.53T185,63.28q0,8.39,2.8,12.92t8.66,4.53q5.86,0,8.73-4.53T208,63.28Z"/><g id="_Группа_10" data-name="&lt;Группа&gt;"><path id="_Составной_контур_3" data-name="&lt;Составной контур&gt;" class="cls-2" d="M158.18,139.33a129.78,129.78,0,0,1-16.62-1,105.4,105.4,0,0,1-14.23-2.78,91.45,91.45,0,0,1-11.84-4.06,63.76,63.76,0,0,1-9.34-4.84,17,17,0,0,1-.78-4.11q-.22-2.56-.22-4.78a44.41,44.41,0,0,1,.33-5,49.72,49.72,0,0,1,.89-5.34q2.33,1.33,7,3.5a92.44,92.44,0,0,0,11.28,4.28,119.17,119.17,0,0,0,15.18,3.61,113.53,113.53,0,0,0,36.8,0,119,119,0,0,0,15.18-3.61A92.32,92.32,0,0,0,203,110.92q4.61-2.17,7-3.5a50.48,50.48,0,0,1,.89,5.34,44.41,44.41,0,0,1,.33,5q0,2.22-.22,4.78a16.88,16.88,0,0,1-.78,4.11,63.87,63.87,0,0,1-9.34,4.84A91.5,91.5,0,0,1,189,135.55a105.23,105.23,0,0,1-14.23,2.78A129.68,129.68,0,0,1,158.18,139.33Z"/></g></g><path class="cls-2" d="M640.56,47.37V9.32A3.72,3.72,0,0,1,641.7,7.2a2.84,2.84,0,0,1,1.76-.77,2.76,2.76,0,0,1,1.79.62,4,4,0,0,1,1.32,2V26.51A13.34,13.34,0,0,1,650,24.1a13.86,13.86,0,0,1,3.18-1.35,23.83,23.83,0,0,1,3.4-.62,6.84,6.84,0,0,1,3.59.37,22.88,22.88,0,0,1,3.29,1.61,8.12,8.12,0,0,1,3.22,3.44,17,17,0,0,1,1.54,4.72,25.65,25.65,0,0,1,.37,5.12,31.79,31.79,0,0,1-.44,4.65,7.17,7.17,0,0,1-.66,2.23q-.51,1.06-1.1,2.09a10.45,10.45,0,0,1-2.78,3.48,14.52,14.52,0,0,1-3.92,2.27,20,20,0,0,1-4.46,1.17,20.56,20.56,0,0,1-4.35.18,22.41,22.41,0,0,1-3.22-.51,10.56,10.56,0,0,1-3-1.24C641.18,49.22,640.56,47.37,640.56,47.37Zm6-11.78V45.83a8.11,8.11,0,0,0,.8.44,1.09,1.09,0,0,0,.29.22,1.21,1.21,0,0,1,.29.22,11.34,11.34,0,0,0,7.24.51,12.25,12.25,0,0,0,6.07-4,19.38,19.38,0,0,0,1.06-3.26,14,14,0,0,0,.33-3,16.28,16.28,0,0,0-.29-3,20.19,20.19,0,0,0-1-3.29,4.51,4.51,0,0,1-.62-.77,4.6,4.6,0,0,0-.62-.77,3.71,3.71,0,0,1-.69-.37,3.82,3.82,0,0,0-.7-.37l-.8-.15-.81-.15a12.47,12.47,0,0,0-5.78,2.38A22.07,22.07,0,0,0,647.15,35Z"/><path class="cls-2" d="M700.78,44.44a3.58,3.58,0,0,1,2.63-.15,2.79,2.79,0,0,1,1.72,3.51,3.41,3.41,0,0,1-1.72,2,46.59,46.59,0,0,1-5.2,2.56A23.8,23.8,0,0,1,692.59,54a17.48,17.48,0,0,1-5.63,0,13.59,13.59,0,0,1-10-8,19.25,19.25,0,0,1-1.68-7.54,18.58,18.58,0,0,1,1.43-7.54,12.82,12.82,0,0,1,4.72-5.82,25.76,25.76,0,0,1,7.32-3.4,16.07,16.07,0,0,1,8-.26,8,8,0,0,1,3.59,1.87,11.69,11.69,0,0,1,2.6,3.29,9,9,0,0,1,1.06,4,7,7,0,0,1-1,3.91,10.45,10.45,0,0,1-3.59,3.48,27.91,27.91,0,0,1-5.09,2.41A51.92,51.92,0,0,1,688.75,42Q686,42.61,684,43.2a3.94,3.94,0,0,1-1.68.07,9.53,9.53,0,0,0,3.26,3.84,8.18,8.18,0,0,0,5.38,1.28A13.33,13.33,0,0,0,696.06,47Q698.66,45.69,700.78,44.44ZM686.52,28.86a9.06,9.06,0,0,0-4,3.92,11.31,11.31,0,0,0-1.32,5.3,4.76,4.76,0,0,1,1.1-.59l2.67-.77q1.35-.4,2.74-.77.88-.22,2.38-.66t3.11-1a18.08,18.08,0,0,0,2.93-1.35,4.11,4.11,0,0,0,1.76-1.72q.15-2.41-1.17-3.29a5.54,5.54,0,0,0-3.15-.88,12.68,12.68,0,0,0-3.81.62A26.43,26.43,0,0,0,686.52,28.86Z"/><path class="cls-2" d="M710,26.15a2.83,2.83,0,0,1-.77-1.9,3.09,3.09,0,0,1,.84-2,3.13,3.13,0,0,1,2.52-1h4.1V9.68a4.28,4.28,0,0,1,1.17-2.2,2.64,2.64,0,0,1,1.83-.73,2.86,2.86,0,0,1,1.79.66,3.7,3.7,0,0,1,1.21,2V21.24h7a3.71,3.71,0,0,1,2,1.21,2.86,2.86,0,0,1,.66,1.79,2.65,2.65,0,0,1-.73,1.83,4.29,4.29,0,0,1-2.19,1.17h-6.81q-.07,5.63,0,11.6t.07,11.6a3.14,3.14,0,0,1-3,3.37,2.83,2.83,0,0,1-1.9-.77,3.7,3.7,0,0,1-1.1-2.38q0-5.71,0-11.71t0-11.71h-4.32A3.7,3.7,0,0,1,710,26.15Z"/><path class="cls-2" d="M762,49.86a.06.06,0,0,1-.07.07,3,3,0,0,1,.22,1.9,2.73,2.73,0,0,1-.84,1.43,3,3,0,0,1-1.61.69,3.63,3.63,0,0,1-2.16-.44,14.14,14.14,0,0,1-1.24-1.43,12.16,12.16,0,0,1-1-1.57,27.43,27.43,0,0,1-3.15,2.3A6.86,6.86,0,0,1,748.72,54q-2.93.15-5.78.07a9.61,9.61,0,0,1-5.42-1.9,10.75,10.75,0,0,1-3.26-3.66A13.35,13.35,0,0,1,732.8,44a17.14,17.14,0,0,1,0-4.87,22,22,0,0,1,1.24-4.76,10.38,10.38,0,0,1,1-2q.58-1,1.17-2A19.16,19.16,0,0,1,738,27.65a12,12,0,0,1,2.34-2.23l1.87-1.32q.91-.66,1.87-1.24a9.45,9.45,0,0,1,2-.91,23.21,23.21,0,0,1,2.93-.81,15.33,15.33,0,0,1,3.15-.33,7.22,7.22,0,0,1,2.67.44,2.83,2.83,0,0,1,2,.51,4.06,4.06,0,0,1,1.5,2.12q0,5-.07,10a62.5,62.5,0,0,0,.66,10,4.65,4.65,0,0,0,.55,1.57q.48.92,1,1.79t1,1.61A2.73,2.73,0,0,1,762,49.86Zm-9.29-5a.87.87,0,0,0,.22-.15.85.85,0,0,1,.22-.15,41.32,41.32,0,0,1-.91-9.11q0-4.72.11-8.67a8.31,8.31,0,0,0-1.46.15,11.58,11.58,0,0,0-1.57.4l-1.39.48a8.49,8.49,0,0,0-.91.37,12,12,0,0,0-3.73,2.67,15.1,15.1,0,0,0-2.52,3.66,19.53,19.53,0,0,0-1.5,4.24,20,20,0,0,0-.51,4.5,10.65,10.65,0,0,0,.37,1.17,11.26,11.26,0,0,1,.37,1.17q.36.37.77.8a8.52,8.52,0,0,0,.84.81q.66.29,1.32.51l1.32.44q1.24,0,2.42.07a6.42,6.42,0,0,0,2.34-.29l2.16-1.46A25.32,25.32,0,0,0,752.67,44.81Z"/></g></g></svg>