<svg xmlns="http:/a/www.w3.org/2000/svg" viewBox="0 0 55.29 29.24"><defs><style>.cls-1{fill:silver;}</style></defs><title>аренда транспорта 1</title><g id="Слой_2" data-name="Слой 2"><g id="Слой_1-2" data-name="Слой 1"><path class="cls-1" d="M52.44,10.78H2.85A2.85,2.85,0,0,0,0,13.63v8.25a2.85,2.85,0,0,0,2.85,2.85H4.48a7.51,7.51,0,0,1-.05-.85,7.09,7.09,0,0,1,7.16-7.16,7.09,7.09,0,0,1,7.16,7.16,7.51,7.51,0,0,1-.05.85h18a7.51,7.51,0,0,1-.05-.85,7.16,7.16,0,0,1,14.32,0,7.51,7.51,0,0,1-.05.85h1.54a2.85,2.85,0,0,0,2.85-2.85V13.63A2.85,2.85,0,0,0,52.44,10.78Z"/><path class="cls-1" d="M26.79,0H18.21a6.35,6.35,0,0,0-5.28,3L9.17,9H26.79Z"/><path class="cls-1" d="M45.63,9A7.79,7.79,0,0,1,44.78,8l-3-5a6.24,6.24,0,0,0-5.28-3H28.58V9Z"/><path class="cls-1" d="M11.59,18.51a5.31,5.31,0,0,0-5.36,5.36,5.53,5.53,0,0,0,.08.85,5.34,5.34,0,0,0,10.56,0,5.53,5.53,0,0,0,.08-.85A5.31,5.31,0,0,0,11.59,18.51Z"/><path class="cls-1" d="M43.79,18.51a5.31,5.31,0,0,0-5.36,5.36,5.53,5.53,0,0,0,.08.85,5.34,5.34,0,0,0,10.56,0,5.53,5.53,0,0,0,.08-.85A5.31,5.31,0,0,0,43.79,18.51Z"/></g></g></svg>