<svg xmlns="http://www.w3.org/2000/svg" viewBox="0 0 26.94 26.94"><defs><style>.cls-1{fill:#3d94d1;}</style></defs><title>телеграм 2</title><g id="Слой_2" data-name="Слой 2"><g id="Слой_1-2" data-name="Слой 1"><path class="cls-1" d="M17.84,9.49l-9,5.6a.41.41,0,0,0-.18.47l1.21,3.9a.08.08,0,0,0,.15,0l.29-2.62a.41.41,0,0,1,.14-.26l7.64-6.76A.2.2,0,0,0,17.84,9.49Z"/><path class="cls-1" d="M13.47,0A13.47,13.47,0,1,0,26.94,13.47,13.47,13.47,0,0,0,13.47,0Zm7.8,7.79L18.46,21.23a.89.89,0,0,1-1.39.53l-4.24-3.11-2.16,2.21a.72.72,0,0,1-1.2-.29l-1.56-5L3.73,14.38a.6.6,0,0,1,0-1.13L20.14,6.83A.85.85,0,0,1,21.27,7.79Z"/></g></g></svg>