<svg xmlns="http://www.w3.org/2000/svg" viewBox="0 0 26.94 26.94"><defs><style>.cls-1{fill:#3d94d1;}</style></defs><title>вк_1</title><g id="Слой_2" data-name="Слой 2"><g id="Слой_1-2" data-name="Слой 1"><path class="cls-1" d="M13.47,0A13.47,13.47,0,1,0,26.94,13.47,13.47,13.47,0,0,0,13.47,0Zm5.38,15.2c.47.48,1,.94,1.43,1.44a8.47,8.47,0,0,1,.9,1.17.66.66,0,0,1-.49,1.1c-.39.05-2.29,0-2.39,0A1.86,1.86,0,0,1,17,18.38c-.4-.39-.77-.81-1.15-1.21a3.2,3.2,0,0,0-.37-.34c-.32-.24-.63-.19-.77.18a7.13,7.13,0,0,0-.24,1.23.65.65,0,0,1-.68.63,6.41,6.41,0,0,1-3.47-.65,7.33,7.33,0,0,1-2.3-2A24.28,24.28,0,0,1,5.44,12c0-.07-.78-1.65-.8-1.73a.44.44,0,0,1,.21-.57c.13-.05,2.57,0,2.62,0a.85.85,0,0,1,.82.59,12.8,12.8,0,0,0,1.84,3.22,1.72,1.72,0,0,0,.37.34.28.28,0,0,0,.47-.14,4,4,0,0,0,.17-1c0-.66,0-1.09,0-1.75a.86.86,0,0,0-.79-.91c-.19,0-.21-.19-.09-.35a1.22,1.22,0,0,1,1-.4c.63,0,1.26,0,1.89,0a3.75,3.75,0,0,1,.77.08.7.7,0,0,1,.56.62,2.65,2.65,0,0,1,0,.5c0,.72-.05,1.44-.06,2.16a3.76,3.76,0,0,0,.08.85c.08.38.35.48.61.2A9.38,9.38,0,0,0,16,12.61a11.47,11.47,0,0,0,1.22-2.36c.17-.43.3-.52.76-.52h2.59a1.56,1.56,0,0,1,.46.06.4.4,0,0,1,.27.51,4.3,4.3,0,0,1-.77,1.52c-.53.75-1.08,1.48-1.62,2.21a2.82,2.82,0,0,0-.19.3A.61.61,0,0,0,18.85,15.2Z"/></g></g></svg>